{"title":"Women on the 6th floor","uid":14735055,"size":2273930093,"categoryP":"video","categoryS":"hd___movies","magnet":"?xt=urn:btih:c59f3f78762086559f19d4990da5da97f813a7a4&amp;dn=Women+on+the+6th+floor&amp;tr=udp%3A%2F%2Ftracker.leechers-paradise.org%3A6969&amp;tr=udp%3A%2F%2Fzer0day.ch%3A1337&amp;tr=udp%3A%2F%2Fopen.demonii.com%3A1337&amp;tr=udp%3A%2F%2Ftracker.coppersurfer.tk%3A6969&amp;tr=udp%3A%2F%2Fexodus.desync.com%3A6969","seeders":0,"leechers":2,"uploader":"fant44000","files":1,"time":1464627661,"description":"Synopsis:\r\nIn 1960s Paris, a conservative couple's lives are turned upside down by two Spanish maids.\r\n\r\n//\r\n\r\nUnfortunately no English subs on the disk - so only nordic subs this time. Spoken language is French.\r\n\r\nTorrent encoded using x265 codec. You need a suitable player for this kind of file.\r\n\r\nEnjoy - Fant44000\r\n\r\nGeneral\r\nFormat : Matroska\r\nFormat version : Version 2\r\nFile size : 2.12 GiB\r\nDuration : 1h 46mn\r\nOverall bit rate : 2 854 Kbps\r\nEncoded date : UTC 2016-05-30T10:29:22Z\r\nWriting application : HandBrake 0.10.5 2016021100\r\nWriting library : Lavf55.12.0 / Lavf55.12.0\r\n\r\nVideo\r\nID : 1\r\nFormat : HEVC\r\nFormat/Info : High Efficiency Video Coding\r\nFormat profile :   @Main\r\nCodec ID : V_MPEGH/ISO/HEVC\r\nDuration : 1h 46mn\r\nBit rate : 2 573 Kbps\r\nWidth : 1 920 pixels\r\nHeight : 1 036 pixels\r\nDisplay aspect ratio : 1.85:1\r\nFrame rate mode : Constant\r\nFrame rate : 24.000 fps\r\nColor space : YUV\r\nChroma subsampling : 4:2:0\r\nBit depth : 8 bits\r\nBits/(Pixel*Frame) : 0.054\r\nStream size : 1.91 GiB (90%)\r\n\r\n\r\nAudio\r\nID : 2\r\nFormat : AC-3\r\nFormat/Info : Audio Coding 3\r\nMode extension : CM (complete main)\r\nFormat settings, Endianness : Big\r\nCodec ID : A_AC3\r\nDuration : 1h 46mn\r\nBit rate mode : Constant\r\nBit rate : 224 Kbps\r\nChannel(s) : 6 channels\r\nChannel positions : Front: L C R, Side: L R, LFE\r\nSampling rate : 48.0 KHz\r\nFrame rate : 31.250 fps (1536 spf)\r\nCompression mode : Lossy\r\nDelay relative to video : -5ms\r\nStream size : 170 MiB (8%)\r\nTitle : Surround\r\nLanguage : French\r\nDefault : Yes\r\nForced : No","torrent":{"xt":"urn:btih:c59f3f78762086559f19d4990da5da97f813a7a4","amp;dn":"Women+on+the+6th+floor","amp;tr":["udp%3A%2F%2Ftracker.leechers-paradise.org%3A6969","udp%3A%2F%2Fzer0day.ch%3A1337","udp%3A%2F%2Fopen.demonii.com%3A1337","udp%3A%2F%2Ftracker.coppersurfer.tk%3A6969","udp%3A%2F%2Fexodus.desync.com%3A6969"],"infoHash":"c59f3f78762086559f19d4990da5da97f813a7a4","infoHashBuffer":{"type":"Buffer","data":[197,159,63,120,118,32,134,85,159,25,212,153,13,165,218,151,248,19,167,164]},"announce":[],"urlList":[]}}